<svg width="35" height="35" viewBox="0 0 35 35" fill="none" xmlns="http://www.w3.org/2000/svg">
<g clip-path="url(#clip0_200_1046)">
<path d="M26.7969 0H8.20312C3.67266 0 0 3.67266 0 8.20312V26.7969C0 31.3273 3.67266 35 8.20312 35H26.7969C31.3273 35 35 31.3273 35 26.7969V8.20312C35 3.67266 31.3273 0 26.7969 0Z" fill="white"/>
<path d="M26.7969 0H8.20312C3.67266 0 0 3.67266 0 8.20312V26.7969C0 31.3273 3.67266 35 8.20312 35H26.7969C31.3273 35 35 31.3273 35 26.7969V8.20312C35 3.67266 31.3273 0 26.7969 0Z" fill="#0A66C2"/>
<path d="M25.254 29.7616H29.2558C29.4008 29.7616 29.5399 29.704 29.6424 29.6015C29.745 29.499 29.8026 29.3599 29.8026 29.2149L29.8047 20.7599C29.8047 16.3408 28.8524 12.944 23.6882 12.944C21.725 12.871 19.8737 13.883 18.8747 15.5728C18.8698 15.581 18.8624 15.5874 18.8535 15.591C18.8447 15.5946 18.8349 15.5952 18.8257 15.5927C18.8165 15.5902 18.8083 15.5847 18.8025 15.5772C18.7966 15.5696 18.7934 15.5604 18.7934 15.5508V13.8988C18.7934 13.7538 18.7357 13.6147 18.6332 13.5121C18.5306 13.4096 18.3915 13.352 18.2465 13.352H14.4488C14.3038 13.352 14.1647 13.4096 14.0621 13.5121C13.9596 13.6147 13.902 13.7538 13.902 13.8988V29.2141C13.902 29.3591 13.9596 29.4982 14.0621 29.6008C14.1647 29.7033 14.3038 29.7609 14.4488 29.7609H18.4503C18.5954 29.7609 18.7345 29.7033 18.837 29.6008C18.9396 29.4982 18.9972 29.3591 18.9972 29.2141V21.6435C18.9972 19.5029 19.4033 17.4299 22.0571 17.4299C24.6732 17.4299 24.7071 19.8793 24.7071 21.7822V29.2147C24.7071 29.3598 24.7647 29.4989 24.8673 29.6014C24.9699 29.704 25.109 29.7616 25.254 29.7616ZM5.19531 8.15227C5.19531 9.7743 6.53064 11.1089 8.15281 11.1089C9.77457 11.1088 11.1091 9.77334 11.1091 8.15158C11.1088 6.52982 9.77416 5.19531 8.15227 5.19531C6.52996 5.19531 5.19531 6.53023 5.19531 8.15227ZM6.14674 29.7616H10.1536C10.2986 29.7616 10.4377 29.704 10.5403 29.6014C10.6428 29.4989 10.7004 29.3598 10.7004 29.2147V13.8988C10.7004 13.7538 10.6428 13.6147 10.5403 13.5121C10.4377 13.4096 10.2986 13.352 10.1536 13.352H6.14674C6.0017 13.352 5.8626 13.4096 5.76004 13.5121C5.65748 13.6147 5.59986 13.7538 5.59986 13.8988V29.2147C5.59986 29.3598 5.65748 29.4989 5.76004 29.6014C5.8626 29.704 6.0017 29.7616 6.14674 29.7616Z" fill="white"/>
</g>
<defs>
<clipPath id="clip0_200_1046">
<rect width="35" height="35" fill="white"/>
</clipPath>
</defs>
</svg>
