<svg width="51" height="50" viewBox="0 0 51 50" fill="none" xmlns="http://www.w3.org/2000/svg">
<path d="M39.0667 20.9939C39.0667 22.5335 37.7646 23.7814 36.1583 23.7814C34.5542 23.7814 33.2521 22.5314 33.2521 20.9939C33.2521 19.4543 34.5542 18.2085 36.1583 18.2085C37.7625 18.2085 39.0667 19.4543 39.0667 20.9939Z" fill="#F1EBEB"/>
<path fill-rule="evenodd" clip-rule="evenodd" d="M38.0751 11.5252C35.8667 11.2418 33.0459 11.2418 29.4855 11.2418H21.5147C17.9522 11.2418 15.1313 11.2418 12.9251 11.5252C10.6542 11.8189 8.81258 12.4356 7.36258 13.8252C5.91258 15.2168 5.26883 16.9793 4.96258 19.1585C4.66675 21.271 4.66675 23.9752 4.66675 27.3897V27.5981C4.66675 31.0127 4.66675 33.7168 4.96258 35.8335C5.26883 38.0106 5.91258 39.7731 7.36258 41.1627C8.81258 42.5543 10.6542 43.171 12.9251 43.4627C15.1334 43.7502 17.9542 43.7502 21.5147 43.7502H29.4855C33.048 43.7502 35.8688 43.7502 38.0751 43.4647C40.3459 43.1731 42.1876 42.5564 43.6376 41.1647C45.0876 39.7752 45.7313 38.0127 46.0376 35.8356C46.3334 33.7189 46.3334 31.0147 46.3334 27.6002V27.3918C46.3334 23.9752 46.3334 21.2731 46.0376 19.1564C45.7313 16.9793 45.0876 15.2168 43.6376 13.8252C42.1876 12.4356 40.3459 11.8189 38.0751 11.5252ZM13.3126 14.2877C11.3626 14.5377 10.2397 15.0106 9.41675 15.796C8.598 16.5835 8.10633 17.6585 7.84383 19.5272C7.6355 21.0272 7.58758 22.9022 7.57717 25.3522L8.55633 24.5293C10.9001 22.5647 14.4292 22.6772 16.6292 24.7856L24.9417 32.7543C25.3537 33.1428 25.8854 33.3799 26.4497 33.4268C27.014 33.4738 27.5775 33.3277 28.048 33.0127L28.6272 32.6231C29.9858 31.7145 31.6036 31.2738 33.2353 31.3678C34.867 31.4618 36.4235 32.0854 37.6688 33.1439L42.6834 37.4731C42.8876 36.9231 43.0438 36.2647 43.1563 35.4627C43.423 33.5543 43.4272 31.0377 43.4272 27.496C43.4272 23.9543 43.423 21.4377 43.1563 19.5272C42.8938 17.6585 42.4022 16.5835 41.5813 15.7981C40.7626 15.0106 39.6376 14.5397 37.6876 14.2877C35.6959 14.0314 33.0709 14.0272 29.3751 14.0272H21.6251C17.9292 14.0272 15.3042 14.0314 13.3126 14.2877Z" fill="#F1EBEB"/>
<path d="M36.0958 5.43766C34.3041 5.2085 32.025 5.2085 29.1812 5.2085H22.7437C19.9021 5.2085 17.6208 5.2085 15.8291 5.43766C13.975 5.67725 12.4291 6.1835 11.2021 7.35433C10.5248 8.00437 10.0084 8.80327 9.69373 9.68766C10.7437 9.2085 11.9312 8.92516 13.2646 8.75016C15.5229 8.4585 18.4104 8.4585 22.0562 8.4585H30.2104C33.8562 8.4585 36.7416 8.4585 39.0021 8.75016C40.1646 8.90225 41.2187 9.13766 42.1666 9.51266C41.8493 8.69724 41.3573 7.96123 40.725 7.35641C39.4979 6.1835 37.9521 5.67725 36.0958 5.43975" fill="#F1EBEB"/>
</svg>
