<svg width="72" height="73" viewBox="0 0 72 73" fill="none" xmlns="http://www.w3.org/2000/svg">
<path d="M13.7273 58.8489V71.5762H71V17.3898H58.2727M4.18182 55.6671L20.0909 36.5762L29.6364 46.1216L42.3636 30.2125L58.2727 49.3034M1 1.57617H58.2727V58.8489H1V1.57617ZM16.9091 23.8489C17.753 23.8489 18.5623 23.5137 19.159 22.917C19.7557 22.3203 20.0909 21.511 20.0909 20.6671C20.0909 19.8232 19.7557 19.0139 19.159 18.4172C18.5623 17.8205 17.753 17.4853 16.9091 17.4853C16.0652 17.4853 15.2559 17.8205 14.6592 18.4172C14.0625 19.0139 13.7273 19.8232 13.7273 20.6671C13.7273 21.511 14.0625 22.3203 14.6592 22.917C15.2559 23.5137 16.0652 23.8489 16.9091 23.8489Z" stroke="#24496C" stroke-width="2"/>
</svg>
