<svg width="80" height="80" viewBox="0 0 80 80" fill="none" xmlns="http://www.w3.org/2000/svg">
<path d="M35.4679 77.8682C34.3963 79.2332 32.9431 80 31.4278 80C29.9126 80 28.4594 79.2332 27.3878 77.8682L1.67309 45.1037C0.601807 43.7383 0 41.8867 0 39.956C0 38.0254 0.601807 36.1738 1.67309 34.8084L27.3878 2.04387C28.4655 0.717575 29.909 -0.0163116 31.4073 0.000282288C32.9056 0.0168686 34.3388 0.7826 35.3983 2.13256C36.4578 3.48251 37.0587 5.30869 37.0718 7.21774C37.0848 9.12679 36.5088 10.966 35.4679 12.3392L19.9991 32.675L74.2856 32.675C75.8012 32.675 77.2546 33.4421 78.3263 34.8076C79.398 36.1731 80 38.025 80 39.956C80 41.8871 79.398 43.739 78.3263 45.1045C77.2546 46.4699 75.8012 47.237 74.2856 47.237L19.9991 47.237L35.4679 67.5729C36.5392 68.9383 37.141 70.7899 37.141 72.7206C37.141 74.6512 36.5392 76.5028 35.4679 77.8682Z" fill="#3F427D"/>
</svg>
