<svg width="100" height="86" viewBox="0 0 100 86" fill="none" xmlns="http://www.w3.org/2000/svg">
<path d="M77.2461 36.682C78.5807 39.0454 79.5736 41.5073 80.2246 44.0676C80.8756 46.628 81.2174 49.2704 81.25 51.9949V57.0664L50 72.8716L18.75 57.0664C18.75 55.0969 18.7663 53.2587 18.7988 51.5518C18.8314 49.8449 18.9779 48.1872 19.2383 46.5788C19.4987 44.9703 19.8893 43.3619 20.4102 41.7535C20.931 40.145 21.7122 38.4546 22.7539 36.682L12.5 31.5121V60.4145C13.444 60.7428 14.2904 61.2023 15.0391 61.7932C15.7878 62.384 16.4551 63.0733 17.041 63.8611C17.627 64.6489 18.0501 65.5024 18.3105 66.4215C18.571 67.3406 18.7174 68.3089 18.75 69.3265V85.0826H0V69.3265C0 68.3418 0.146484 67.3898 0.439453 66.4707C0.732422 65.5516 1.1556 64.6818 1.70898 63.8611C2.26237 63.0405 2.91341 62.3512 3.66211 61.7932C4.41081 61.2351 5.27344 60.7756 6.25 60.4145V28.3608L0 25.2096L50 0L100 25.2096L77.2461 36.682ZM12.5 69.3265C12.5 68.4731 12.1908 67.7345 11.5723 67.1108C10.9538 66.4872 10.2214 66.1753 9.375 66.1753C8.52865 66.1753 7.79622 66.4872 7.17773 67.1108C6.55924 67.7345 6.25 68.4731 6.25 69.3265V78.7801H12.5V69.3265ZM13.9648 25.2096L50 43.3783L86.0352 25.2096L50 7.04098L13.9648 25.2096ZM75 53.1766C75 50.6491 74.7559 48.3021 74.2676 46.1356C73.7793 43.9692 72.9167 41.7535 71.6797 39.4885L50 50.4193L28.3203 39.4885C27.2461 41.3924 26.4323 43.3947 25.8789 45.4955C25.3255 47.5963 25.0326 49.7628 25 51.9949V53.1766L50 65.7814L75 53.1766Z" fill="url(#paint0_linear_188_321)"/>
<defs>
<linearGradient id="paint0_linear_188_321" x1="50" y1="0" x2="50" y2="85.0826" gradientUnits="userSpaceOnUse">
<stop stop-color="#465EDF"/>
<stop offset="1" stop-color="#1C244E"/>
</linearGradient>
</defs>
</svg>
