<svg width="35" height="35" viewBox="0 0 35 35" fill="none" xmlns="http://www.w3.org/2000/svg">
<path d="M14.9074 0C14.3917 0 13.8971 0.21274 13.5325 0.591419C13.1678 0.970098 12.963 1.4837 12.963 2.01923C12.963 2.55476 13.1678 3.06836 13.5325 3.44704C13.8971 3.82572 14.3917 4.03846 14.9074 4.03846H27.2222C28.2536 4.03846 29.2428 4.46394 29.9721 5.2213C30.7014 5.97866 31.1111 7.00586 31.1111 8.07692V26.9231C31.1111 27.9941 30.7014 29.0213 29.9721 29.7787C29.2428 30.5361 28.2536 30.9615 27.2222 30.9615H14.9074C14.3917 30.9615 13.8971 31.1743 13.5325 31.553C13.1678 31.9316 12.963 32.4452 12.963 32.9808C12.963 33.5163 13.1678 34.0299 13.5325 34.4086C13.8971 34.7873 14.3917 35 14.9074 35H27.2222C29.285 35 31.2633 34.149 32.7219 32.6343C34.1806 31.1196 35 29.0652 35 26.9231V8.07692C35 5.93479 34.1806 3.88039 32.7219 2.36568C31.2633 0.850959 29.285 0 27.2222 0H14.9074ZM22.763 16.0731L16.2815 9.34231C15.9129 8.98563 15.4254 8.79145 14.9216 8.80068C14.4179 8.80991 13.9372 9.02183 13.581 9.39179C13.2247 9.76175 13.0207 10.2609 13.0118 10.784C13.0029 11.3071 13.1899 11.8134 13.5333 12.1962L16.6963 15.4808H1.94444C1.42875 15.4808 0.934169 15.6935 0.569515 16.0722C0.204861 16.4509 0 16.9645 0 17.5C0 18.0355 0.204861 18.5491 0.569515 18.9278C0.934169 19.3065 1.42875 19.5192 1.94444 19.5192H16.6963L13.5333 22.8038C13.3423 22.9887 13.1891 23.2116 13.0828 23.4593C12.9765 23.707 12.9194 23.9744 12.9148 24.2455C12.9102 24.5166 12.9582 24.7859 13.056 25.0374C13.1538 25.2888 13.2993 25.5172 13.484 25.7089C13.6686 25.9007 13.8886 26.0519 14.1307 26.1534C14.3728 26.255 14.6321 26.3048 14.8932 26.3001C15.1543 26.2953 15.4118 26.2359 15.6503 26.1256C15.8888 26.0152 16.1035 25.8561 16.2815 25.6577L22.763 18.9269C23.1271 18.5483 23.3316 18.0351 23.3316 17.5C23.3316 16.9649 23.1271 16.4517 22.763 16.0731Z" fill="#24496C"/>
</svg>
