<svg width="35" height="27" viewBox="0 0 35 27" fill="none" xmlns="http://www.w3.org/2000/svg">
<path d="M33.1684 2.53248L34.1658 2.69045C34.2077 2.42593 34.1428 2.15559 33.9853 1.93892C33.8279 1.72224 33.5909 1.57698 33.3263 1.53508L33.1684 2.53248ZM25.1892 1.2687L25.3472 0.271307C25.1497 0.239669 24.9473 0.267376 24.7656 0.350917C24.5839 0.434457 24.4311 0.570069 24.3265 0.74056C24.222 0.91105 24.1704 1.10874 24.1784 1.30857C24.1863 1.5084 24.2534 1.70137 24.3712 1.86302L25.1892 1.2687ZM31.9046 10.5116L31.0866 11.106C31.2039 11.2679 31.3667 11.3914 31.5543 11.4607C31.7419 11.53 31.9458 11.542 32.1403 11.4953C32.3347 11.4486 32.5109 11.3451 32.6465 11.1981C32.7821 11.0512 32.871 10.8672 32.902 10.6696L31.9046 10.5116ZM27.9526 5.07218L0.223734 25.2184L1.41236 26.8544L29.1412 6.70818L27.9526 5.07218ZM33.3263 1.53508L25.3472 0.271307L25.0312 2.2661L33.0104 3.52988L33.3263 1.53508ZM24.3712 1.86302L31.0866 11.106L32.7226 9.91734L26.0072 0.674391L24.3712 1.86302ZM32.902 10.6696L34.1658 2.69045L32.171 2.37451L30.9072 10.3537L32.902 10.6696Z" fill="#FEE9E9"/>
</svg>
