<svg width="35" height="35" viewBox="0 0 35 35" fill="none" xmlns="http://www.w3.org/2000/svg">
<g clip-path="url(#clip0_200_1055)">
<path d="M30.4199 0.590576H4.58003C2.37672 0.590576 0.590576 2.37672 0.590576 4.58003V30.4171C0.590576 32.6205 2.37672 34.4066 4.58003 34.4066H30.4199C32.6232 34.4066 34.4093 32.6205 34.4093 30.4171V4.58003C34.4093 2.37672 32.6232 0.590576 30.4199 0.590576Z" fill="url(#paint0_linear_200_1055)"/>
<path d="M14.391 16.4827C14.391 16.4827 17.2621 16.2694 17.2621 12.9034C17.2621 9.5374 14.9132 7.89404 11.9382 7.89404H2.14917V26.7065H11.9382C11.9382 26.7065 17.9128 26.8952 17.9128 21.153C17.9128 21.153 18.1753 16.4827 14.391 16.4827ZM6.46128 11.2382H11.93C11.93 11.2382 13.2617 11.2382 13.2617 13.196C13.2617 15.1538 12.4796 15.4382 11.591 15.4382H6.46401L6.46128 11.2382ZM11.6839 23.3624H6.46401V18.3366H11.9328C11.9328 18.3366 13.9152 18.3093 13.9152 20.9206C13.9207 23.0944 12.4714 23.3405 11.6867 23.3624H11.6839ZM25.8835 12.6819C18.6484 12.6819 18.6566 19.9089 18.6566 19.9089C18.6566 19.9089 18.1589 27.1003 25.8835 27.1003C25.8835 27.1003 32.3203 27.4667 32.3203 22.0991H29.0117C29.0117 22.0991 29.121 24.1226 26.0039 24.1226C26.0039 24.1226 22.6925 24.344 22.6925 20.8413H32.4406C32.4406 20.8413 33.4988 12.6819 25.8835 12.6819ZM28.8257 18.3366H22.646C22.646 18.3366 23.0507 15.4382 25.9574 15.4382C28.864 15.4382 28.8257 18.3366 28.8257 18.3366ZM21.8367 9.0042H29.5968V11.3202H21.8367V9.0042Z" fill="white"/>
</g>
<defs>
<linearGradient id="paint0_linear_200_1055" x1="17.5" y1="0.590576" x2="17.5" y2="34.4093" gradientUnits="userSpaceOnUse">
<stop stop-color="#005CFF"/>
<stop offset="1" stop-color="#0047AD"/>
</linearGradient>
<clipPath id="clip0_200_1055">
<rect width="35" height="35" fill="white"/>
</clipPath>
</defs>
</svg>
