<svg width="50" height="50" viewBox="0 0 50 50" fill="none" xmlns="http://www.w3.org/2000/svg">
<g clip-path="url(#clip0_143_32)">
<path d="M43.457 0.84375H6.54297C3.39538 0.84375 0.84375 3.39538 0.84375 6.54297V43.4531C0.84375 46.6007 3.39538 49.1523 6.54297 49.1523H43.457C46.6046 49.1523 49.1562 46.6007 49.1562 43.4531V6.54297C49.1562 3.39538 46.6046 0.84375 43.457 0.84375Z" fill="url(#paint0_linear_143_32)"/>
<path d="M20.5586 23.5469C20.5586 23.5469 24.6602 23.2422 24.6602 18.4336C24.6602 13.625 21.3047 11.2773 17.0547 11.2773H3.07031V38.1523H17.0547C17.0547 38.1523 25.5898 38.4219 25.5898 30.2188C25.5898 30.2188 25.9648 23.5469 20.5586 23.5469ZM9.23047 16.0547H17.043C17.043 16.0547 18.9453 16.0547 18.9453 18.8516C18.9453 21.6484 17.8281 22.0547 16.5586 22.0547H9.23437L9.23047 16.0547ZM16.6914 33.375H9.23437V26.1953H17.0469C17.0469 26.1953 19.8789 26.1562 19.8789 29.8867C19.8867 32.9922 17.8164 33.3438 16.6953 33.375H16.6914ZM36.9766 18.1172C26.6406 18.1172 26.6523 28.4414 26.6523 28.4414C26.6523 28.4414 25.9414 38.7148 36.9766 38.7148C36.9766 38.7148 46.1719 39.2383 46.1719 31.5703H41.4453C41.4453 31.5703 41.6016 34.4609 37.1484 34.4609C37.1484 34.4609 32.418 34.7773 32.418 29.7734H46.3438C46.3438 29.7734 47.8555 18.1172 36.9766 18.1172ZM41.1797 26.1953H32.3516C32.3516 26.1953 32.9297 22.0547 37.082 22.0547C41.2344 22.0547 41.1797 26.1953 41.1797 26.1953ZM31.1953 12.8633H42.2812V16.1719H31.1953V12.8633Z" fill="white"/>
</g>
<defs>
<linearGradient id="paint0_linear_143_32" x1="25" y1="0.84375" x2="25" y2="49.1563" gradientUnits="userSpaceOnUse">
<stop stop-color="#005CFF"/>
<stop offset="1" stop-color="#0047AD"/>
</linearGradient>
<clipPath id="clip0_143_32">
<rect width="50" height="50" fill="white"/>
</clipPath>
</defs>
</svg>
