<svg width="35" height="35" viewBox="0 0 35 35" fill="none" xmlns="http://www.w3.org/2000/svg">
<g clip-path="url(#clip0_200_1033)">
<path d="M26.7969 0H8.20312C3.67266 0 0 3.67266 0 8.20312V26.7969C0 31.3273 3.67266 35 8.20312 35H26.7969C31.3273 35 35 31.3273 35 26.7969V8.20312C35 3.67266 31.3273 0 26.7969 0Z" fill="white"/>
<path d="M26.7969 0H8.20312C3.67266 0 0 3.67266 0 8.20312V26.7969C0 31.3273 3.67266 35 8.20312 35H26.7969C31.3273 35 35 31.3273 35 26.7969V8.20312C35 3.67266 31.3273 0 26.7969 0Z" fill="#1D9BF0"/>
<path d="M27.2852 12.4976C27.3003 12.7146 27.3003 12.9315 27.3003 13.1506C27.3003 19.822 22.2214 27.5163 12.9346 27.5163V27.5122C10.191 27.5161 7.50436 26.7304 5.19531 25.2488C5.59426 25.2968 5.99512 25.3207 6.39707 25.3217C8.67097 25.3235 10.8795 24.5608 12.6677 23.1562C11.6141 23.1363 10.5931 22.7877 9.74734 22.159C8.90161 21.5304 8.27347 20.6532 7.95074 19.65C8.70718 19.7959 9.48699 19.7661 10.2301 19.5631C7.87473 19.0872 6.1801 17.0177 6.1801 14.6141V14.5502C6.88227 14.9413 7.66812 15.158 8.4715 15.1821C6.25311 13.6993 5.56924 10.748 6.90881 8.44046C8.17637 10.0003 9.75788 11.276 11.5506 12.1848C13.3433 13.0935 15.3072 13.615 17.3146 13.7153C17.1145 12.8538 17.144 11.9548 17.4003 11.1083C17.6567 10.2617 18.1307 9.49732 18.7752 8.8915C20.8087 6.9799 24.007 7.07792 25.9186 9.11038C27.0493 8.88715 28.1335 8.47264 29.1248 7.8847C28.7479 9.05373 27.9591 10.046 26.9053 10.677C27.9062 10.5591 28.8836 10.2912 29.8047 9.8823C29.1271 10.897 28.2739 11.7826 27.2852 12.4976Z" fill="white"/>
</g>
<defs>
<clipPath id="clip0_200_1033">
<rect width="35" height="35" fill="white"/>
</clipPath>
</defs>
</svg>
