<svg width="35" height="28" viewBox="0 0 35 28" fill="none" xmlns="http://www.w3.org/2000/svg">
<path d="M33.7719 3.24427L34.7693 3.40224C34.8112 3.13772 34.7463 2.86738 34.5888 2.65071C34.4314 2.43404 34.1944 2.28877 33.9298 2.24688L33.7719 3.24427ZM25.7927 1.9805L25.9507 0.983099C25.7532 0.951461 25.5508 0.979168 25.3691 1.06271C25.1874 1.14625 25.0346 1.28186 24.93 1.45235C24.8255 1.62284 24.7739 1.82053 24.7819 2.02036C24.7898 2.22019 24.8569 2.41316 24.9747 2.57481L25.7927 1.9805ZM32.5081 11.2234L31.6901 11.8178C31.8074 11.9797 31.9702 12.1032 32.1578 12.1725C32.3454 12.2418 32.5494 12.2538 32.7438 12.2071C32.9383 12.1604 33.1145 12.0569 33.2501 11.9099C33.3857 11.7629 33.4746 11.579 33.5055 11.3814L32.5081 11.2234ZM28.5561 5.78397L0.827249 25.9301L2.01587 27.5662L29.7447 7.41997L28.5561 5.78397ZM33.9298 2.24688L25.9507 0.983099L25.6347 2.97789L33.6139 4.24167L33.9298 2.24688ZM24.9747 2.57481L31.6901 11.8178L33.3261 10.6291L26.6107 1.38618L24.9747 2.57481ZM33.5055 11.3814L34.7693 3.40224L32.7745 3.0863L31.5107 11.0655L33.5055 11.3814Z" fill="#FEE9E9"/>
</svg>
