<svg width="54" height="52" viewBox="0 0 54 52" fill="none" xmlns="http://www.w3.org/2000/svg">
<path d="M10.6931 41.9091V51H52.4134V12.2955H43.1422M3.73967 39.6364L15.3286 26L22.282 32.8182L31.5532 21.4545L43.1422 35.0909M1.42188 1H43.1422V41.9091H1.42188V1ZM13.0109 16.9091C13.6256 16.9091 14.2151 16.6696 14.6498 16.2434C15.0845 15.8172 15.3286 15.2391 15.3286 14.6364C15.3286 14.0336 15.0845 13.4555 14.6498 13.0293C14.2151 12.6031 13.6256 12.3636 13.0109 12.3636C12.3961 12.3636 11.8066 12.6031 11.3719 13.0293C10.9373 13.4555 10.6931 14.0336 10.6931 14.6364C10.6931 15.2391 10.9373 15.8172 11.3719 16.2434C11.8066 16.6696 12.3961 16.9091 13.0109 16.9091Z" stroke="#24496C" stroke-width="2"/>
</svg>
