<svg width="35" height="35" viewBox="0 0 35 35" fill="none" xmlns="http://www.w3.org/2000/svg">
<path d="M17.5 35C7.84766 35 0 27.1568 0 17.5068C0 7.84318 7.84766 0 17.5 0C27.1523 0 35 7.84318 35 17.4932C35 27.1431 27.1523 35 17.5 35ZM32.252 19.8885C31.7461 19.7243 27.6309 18.5061 22.9414 19.2452C24.8965 24.6109 25.6895 28.991 25.8398 29.8944C29.2031 27.6359 31.5957 24.0497 32.252 19.8885ZM23.3379 31.2769C23.1191 29.9628 22.2441 25.3911 20.1523 19.9433C20.125 19.957 20.084 19.9707 20.0566 19.9707C11.6211 22.9136 8.59961 28.7583 8.32617 29.3058C10.8555 31.2769 14.041 32.454 17.5 32.454C19.5645 32.4677 21.5469 32.0434 23.3379 31.2769ZM6.39844 27.5127C6.74023 26.9378 10.8418 20.1486 18.5527 17.6437C18.7441 17.5753 18.9492 17.5205 19.1406 17.4658C18.7715 16.6171 18.3613 15.7685 17.9238 14.9335C10.459 17.1646 3.21289 17.0688 2.55664 17.0551C2.55664 17.2057 2.54297 17.3563 2.54297 17.5068C2.55664 21.3531 4.00586 24.8573 6.39844 27.5127ZM2.87109 14.4544C3.54102 14.4681 9.69336 14.4955 16.6934 12.6339C14.2188 8.22644 11.5391 4.5307 11.1562 3.99687C6.95898 5.96793 3.8418 9.82792 2.87109 14.4544ZM14 2.98397C14.4102 3.53148 17.1309 7.22722 19.5781 11.7305C24.8965 9.73211 27.1387 6.72077 27.4121 6.3375C24.7734 3.99687 21.3008 2.57333 17.5 2.57333C16.2969 2.57333 15.1211 2.7239 14 2.98397ZM29.0664 8.06218C28.752 8.48651 26.25 11.7032 20.7266 13.9617C21.0684 14.6734 21.4102 15.3989 21.7246 16.1244C21.834 16.3844 21.9434 16.6445 22.0527 16.8909C27.0293 16.2612 31.9648 17.2742 32.457 17.37C32.416 13.8522 31.1582 10.6081 29.0664 8.06218Z" fill="#B2215A"/>
</svg>
