<svg width="492" height="500" viewBox="0 0 492 500" fill="none" xmlns="http://www.w3.org/2000/svg">
<path d="M59.5 122.5L444 120.5L433.5 377H40L59.5 122.5Z" fill="#0CA653"/>
<path d="M246 500C180.985 500 118.633 473.661 72.6609 426.777C26.6884 379.893 0.861328 316.304 0.861328 250C0.861328 183.696 26.6884 120.107 72.6609 73.2233C118.633 26.3392 180.985 0 246 0C311.015 0 373.367 26.3392 419.34 73.2233C465.312 120.107 491.139 183.696 491.139 250C491.139 316.304 465.312 379.893 419.34 426.777C373.367 473.661 311.015 500 246 500ZM185.176 362.97C191.708 369.631 202.388 369.784 209.108 363.312L405.243 174.399C412.048 167.845 412.203 156.999 405.588 150.253L392.553 136.959C386.049 130.326 375.424 130.143 368.694 136.548L209.105 288.452C202.375 294.857 191.75 294.674 185.246 288.041L123.312 224.879C116.647 218.082 105.7 218.082 99.0356 224.879L86.0738 238.098C79.5915 244.709 79.5915 255.291 86.0738 261.902L185.176 362.97Z" fill="#0C1246"/>
</svg>
