<svg width="35" height="35" viewBox="0 0 35 35" fill="none" xmlns="http://www.w3.org/2000/svg">
<g clip-path="url(#clip0_200_1051)">
<path d="M0.746899 17.2906C0.746079 20.2313 1.52045 23.1026 2.99292 25.6335L0.606079 34.2807L9.52452 31.9603C11.9912 33.2928 14.755 33.991 17.5636 33.9912H17.571C26.8425 33.9912 34.3898 26.5051 34.3938 17.3038C34.3956 12.845 32.6472 8.65238 29.4707 5.49803C26.2947 2.34397 22.0708 0.606039 17.5703 0.604004C8.2976 0.604004 0.750864 8.08966 0.747036 17.2906" fill="url(#paint0_linear_200_1051)"/>
<path d="M0.146289 17.2851C0.145332 20.3316 0.947461 23.3057 2.47242 25.9271L0 34.8843L9.23822 32.4808C11.7837 33.8579 14.6496 34.5839 17.5658 34.585H17.5733C27.1775 34.585 34.9959 26.8297 35 17.299C35.0016 12.68 33.1904 8.33665 29.9004 5.0693C26.61 1.80236 22.235 0.00189922 17.5733 0C7.96742 0 0.150117 7.75426 0.146289 17.2851ZM5.64799 25.4757L5.30305 24.9323C3.85301 22.6446 3.08766 20.0009 3.08875 17.2862C3.09176 9.3644 9.58918 2.91938 17.5788 2.91938C21.4479 2.92101 25.0841 4.4176 27.819 7.13295C30.5538 9.84857 32.0586 13.4585 32.0577 17.2979C32.0541 25.2197 25.5566 31.6655 17.5733 31.6655H17.5675C14.9681 31.6641 12.4187 30.9715 10.1954 29.6625L9.66629 29.3512L4.18414 30.7773L5.64799 25.4757Z" fill="url(#paint1_linear_200_1051)"/>
<path d="M13.2177 10.0588C12.8915 9.33943 12.5482 9.32491 12.2379 9.3123C11.9839 9.30145 11.6935 9.30226 11.4034 9.30226C11.113 9.30226 10.6412 9.41065 10.2424 9.84273C9.84318 10.2752 8.71826 11.3203 8.71826 13.446C8.71826 15.5717 10.2786 17.626 10.4962 17.9146C10.7139 18.2026 13.5085 22.7043 17.9343 24.4361C21.6126 25.8753 22.3612 25.5891 23.1595 25.5169C23.9579 25.445 25.7358 24.472 26.0985 23.4632C26.4615 22.4544 26.4615 21.5897 26.3527 21.409C26.2438 21.229 25.9534 21.1209 25.518 20.9049C25.0824 20.6888 22.9417 19.6435 22.5426 19.4993C22.1434 19.3553 21.8531 19.2834 21.5627 19.716C21.2723 20.1479 20.4385 21.1209 20.1843 21.409C19.9304 21.6978 19.6763 21.7338 19.241 21.5177C18.8052 21.3009 17.4029 20.8452 15.7392 19.3734C14.4447 18.2282 13.5708 16.814 13.3168 16.3813C13.0628 15.9494 13.2896 15.7153 13.5079 15.5C13.7036 15.3064 13.9435 14.9955 14.1614 14.7433C14.3786 14.4909 14.451 14.3109 14.5962 14.0228C14.7415 13.7344 14.6688 13.482 14.5601 13.2659C14.451 13.0498 13.6049 10.9131 13.2177 10.0588Z" fill="white"/>
</g>
<defs>
<linearGradient id="paint0_linear_200_1051" x1="1689.99" y1="3368.27" x2="1689.99" y2="0.604004" gradientUnits="userSpaceOnUse">
<stop stop-color="#1FAF38"/>
<stop offset="1" stop-color="#60D669"/>
</linearGradient>
<linearGradient id="paint1_linear_200_1051" x1="1750" y1="3488.43" x2="1750" y2="0" gradientUnits="userSpaceOnUse">
<stop stop-color="#F9F9F9"/>
<stop offset="1" stop-color="white"/>
</linearGradient>
<clipPath id="clip0_200_1051">
<rect width="35" height="35" fill="white"/>
</clipPath>
</defs>
</svg>
