<svg width="50" height="50" viewBox="0 0 50 50" fill="none" xmlns="http://www.w3.org/2000/svg">
<g clip-path="url(#clip0_143_28)">
<path d="M1.06689 24.7008C1.06572 28.9017 2.17197 33.0037 4.27549 36.6192L0.865723 48.9723L13.6063 45.6576C17.1302 47.5611 21.0785 48.5585 25.0907 48.5587H25.1013C38.3464 48.5587 49.1282 37.8643 49.1339 24.7196C49.1364 18.35 46.6388 12.3605 42.1009 7.85426C37.5638 3.34845 31.5296 0.865698 25.1003 0.862791C11.8536 0.862791 1.07256 11.5566 1.06709 24.7008" fill="url(#paint0_linear_143_28)"/>
<path d="M0.208984 24.693C0.207617 29.0452 1.35352 33.2938 3.53203 37.0388L0 49.8347L13.1975 46.4012C16.8338 48.3684 20.9279 49.4056 25.0939 49.4072H25.1047C38.825 49.4072 49.9941 38.3281 50 24.7128C50.0023 18.1143 47.4148 11.9095 42.7148 7.24186C38.0143 2.57481 31.7643 0.00271318 25.1047 0C11.382 0 0.214453 11.0775 0.208984 24.693ZM8.06855 36.3938L7.57578 35.6176C5.5043 32.3494 4.41094 28.5727 4.4125 24.6946C4.4168 13.3777 13.6988 4.17054 25.1125 4.17054C30.6398 4.17287 35.8344 6.31085 39.7414 10.1899C43.6482 14.0694 45.798 19.2264 45.7967 24.7112C45.7916 36.0281 36.5094 45.2364 25.1047 45.2364H25.0965C21.383 45.2345 17.741 44.245 14.5648 42.375L13.809 41.9302L5.97734 43.9676L8.06855 36.3938Z" fill="url(#paint1_linear_143_28)"/>
<path d="M18.8823 14.3698C18.4163 13.3421 17.9259 13.3213 17.4827 13.3033C17.1198 13.2878 16.705 13.289 16.2905 13.289C15.8757 13.289 15.2017 13.4438 14.6319 14.061C14.0616 14.6789 12.4546 16.1719 12.4546 19.2085C12.4546 22.2453 14.6837 25.18 14.9944 25.5922C15.3056 26.0037 19.2978 32.4347 25.6204 34.9087C30.8751 36.9647 31.9444 36.5558 33.0849 36.4527C34.2255 36.35 36.7653 34.9601 37.2835 33.5188C37.802 32.0777 37.8021 30.8424 37.6466 30.5843C37.4911 30.3271 37.0763 30.1727 36.4542 29.8641C35.8319 29.5554 32.7737 28.0622 32.2036 27.8562C31.6333 27.6504 31.2187 27.5477 30.8038 28.1657C30.389 28.7828 29.1978 30.1727 28.8347 30.5843C28.472 30.9969 28.1089 31.0483 27.487 30.7395C26.8645 30.4298 24.8612 29.7789 22.4845 27.6764C20.6353 26.0403 19.3868 24.02 19.0239 23.4019C18.661 22.7849 18.9851 22.4504 19.297 22.1428C19.5765 21.8663 19.9192 21.4221 20.2306 21.0618C20.5407 20.7014 20.6442 20.4442 20.8517 20.0326C21.0593 19.6205 20.9554 19.2601 20.8001 18.9514C20.6442 18.6426 19.4354 15.5901 18.8823 14.3698Z" fill="white"/>
</g>
<defs>
<linearGradient id="paint0_linear_143_28" x1="2414.27" y1="4811.81" x2="2414.27" y2="0.862791" gradientUnits="userSpaceOnUse">
<stop stop-color="#1FAF38"/>
<stop offset="1" stop-color="#60D669"/>
</linearGradient>
<linearGradient id="paint1_linear_143_28" x1="2500" y1="4983.47" x2="2500" y2="0" gradientUnits="userSpaceOnUse">
<stop stop-color="#F9F9F9"/>
<stop offset="1" stop-color="white"/>
</linearGradient>
<clipPath id="clip0_143_28">
<rect width="50" height="50" fill="white"/>
</clipPath>
</defs>
</svg>
