<svg width="50" height="50" viewBox="0 0 50 50" fill="none" xmlns="http://www.w3.org/2000/svg">
<g clip-path="url(#clip0_143_23)">
<path d="M38.2812 0H11.7188C5.24666 0 0 5.24666 0 11.7188V38.2812C0 44.7533 5.24666 50 11.7188 50H38.2812C44.7533 50 50 44.7533 50 38.2812V11.7188C50 5.24666 44.7533 0 38.2812 0Z" fill="white"/>
<path d="M38.2812 0H11.7188C5.24666 0 0 5.24666 0 11.7188V38.2812C0 44.7533 5.24666 50 11.7188 50H38.2812C44.7533 50 50 44.7533 50 38.2812V11.7188C50 5.24666 44.7533 0 38.2812 0Z" fill="#0A66C2"/>
<path d="M36.0771 42.5166H41.7939C42.0011 42.5166 42.1998 42.4343 42.3463 42.2878C42.4928 42.1414 42.5751 41.9427 42.5752 41.7355L42.5781 29.657C42.5781 23.3439 41.2178 18.4914 33.8402 18.4914C31.0357 18.3871 28.391 19.8328 26.9639 22.2469C26.9569 22.2586 26.9463 22.2677 26.9336 22.2728C26.921 22.278 26.907 22.2788 26.8938 22.2752C26.8807 22.2717 26.869 22.2639 26.8607 22.2531C26.8523 22.2423 26.8478 22.2291 26.8477 22.2154V19.8555C26.8477 19.6483 26.7653 19.4496 26.6188 19.303C26.4723 19.1565 26.2736 19.0742 26.0664 19.0742H20.6412C20.434 19.0742 20.2353 19.1565 20.0888 19.303C19.9423 19.4496 19.86 19.6483 19.86 19.8555V41.7344C19.86 41.9416 19.9423 42.1403 20.0888 42.2868C20.2353 42.4333 20.434 42.5156 20.6412 42.5156H26.3576C26.5648 42.5156 26.7635 42.4333 26.91 42.2868C27.0566 42.1403 27.1389 41.9416 27.1389 41.7344V30.9193C27.1389 27.8613 27.7189 24.8998 31.5102 24.8998C35.2475 24.8998 35.2959 28.399 35.2959 31.1174V41.7354C35.2959 41.9426 35.3782 42.1413 35.5247 42.2878C35.6712 42.4343 35.8699 42.5166 36.0771 42.5166ZM7.42188 11.6461C7.42188 13.9633 9.32949 15.8699 11.6469 15.8699C13.9637 15.8697 15.8701 13.9619 15.8701 11.6451C15.8697 9.32832 13.9631 7.42188 11.6461 7.42188C9.32852 7.42188 7.42188 9.32891 7.42188 11.6461ZM8.78105 42.5166H14.5051C14.7123 42.5166 14.911 42.4343 15.0575 42.2878C15.204 42.1413 15.2863 41.9426 15.2863 41.7354V19.8555C15.2863 19.6483 15.204 19.4496 15.0575 19.303C14.911 19.1565 14.7123 19.0742 14.5051 19.0742H8.78105C8.57385 19.0742 8.37514 19.1565 8.22863 19.303C8.08211 19.4496 7.9998 19.6483 7.9998 19.8555V41.7354C7.9998 41.9426 8.08211 42.1413 8.22863 42.2878C8.37514 42.4343 8.57385 42.5166 8.78105 42.5166Z" fill="white"/>
</g>
<defs>
<clipPath id="clip0_143_23">
<rect width="50" height="50" fill="white"/>
</clipPath>
</defs>
</svg>
