<svg width="50" height="50" viewBox="0 0 50 50" fill="none" xmlns="http://www.w3.org/2000/svg">
<g clip-path="url(#clip0_143_15)">
<path d="M38.2812 0H11.7188C5.24666 0 0 5.24666 0 11.7188V38.2812C0 44.7533 5.24666 50 11.7188 50H38.2812C44.7533 50 50 44.7533 50 38.2812V11.7188C50 5.24666 44.7533 0 38.2812 0Z" fill="url(#paint0_radial_143_15)"/>
<path d="M38.2812 0H11.7188C5.24666 0 0 5.24666 0 11.7188V38.2812C0 44.7533 5.24666 50 11.7188 50H38.2812C44.7533 50 50 44.7533 50 38.2812V11.7188C50 5.24666 44.7533 0 38.2812 0Z" fill="url(#paint1_radial_143_15)"/>
<path d="M25.0018 5.46875C19.6975 5.46875 19.0316 5.49199 16.9484 5.58672C14.8691 5.68203 13.4498 6.01113 12.208 6.49414C10.9232 6.99297 9.83359 7.66035 8.74805 8.74629C7.66152 9.83203 6.99414 10.9217 6.49375 12.2059C6.00938 13.448 5.67988 14.868 5.58633 16.9463C5.49316 19.0297 5.46875 19.6957 5.46875 25.0002C5.46875 30.3047 5.49219 30.9684 5.58672 33.0516C5.68242 35.1309 6.01152 36.5502 6.49414 37.792C6.99336 39.0768 7.66074 40.1664 8.74668 41.252C9.83203 42.3385 10.9217 43.0074 12.2055 43.5062C13.4482 43.9893 14.8678 44.3184 16.9467 44.4137C19.0301 44.5084 19.6953 44.5316 24.9994 44.5316C30.3043 44.5316 30.968 44.5084 33.0512 44.4137C35.1305 44.3184 36.5514 43.9893 37.7941 43.5062C39.0783 43.0074 40.1664 42.3385 41.2516 41.252C42.3381 40.1664 43.0053 39.0768 43.5059 37.7926C43.9859 36.5502 44.3156 35.1305 44.4133 33.052C44.5068 30.9688 44.5312 30.3047 44.5312 25.0002C44.5312 19.6957 44.5068 19.0301 44.4133 16.9467C44.3156 14.8674 43.9859 13.4482 43.5059 12.2064C43.0053 10.9217 42.3381 9.83203 41.2516 8.74629C40.1652 7.65996 39.0787 6.99258 37.793 6.49434C36.5479 6.01113 35.1277 5.68184 33.0484 5.58672C30.965 5.49199 30.3018 5.46875 24.9957 5.46875H25.0018ZM23.2496 8.98848C23.7697 8.9877 24.35 8.98848 25.0018 8.98848C30.2168 8.98848 30.8348 9.00723 32.8941 9.10078C34.7984 9.18789 35.832 9.50605 36.5205 9.77344C37.432 10.1273 38.0818 10.5506 38.765 11.2344C39.4486 11.918 39.8717 12.5689 40.2266 13.4805C40.4939 14.168 40.8125 15.2016 40.8992 17.1059C40.9928 19.1648 41.0131 19.7832 41.0131 24.9957C41.0131 30.2082 40.9928 30.8268 40.8992 32.8855C40.8121 34.7898 40.4939 35.8234 40.2266 36.5111C39.8727 37.4227 39.4486 38.0717 38.765 38.7549C38.0814 39.4385 37.4324 39.8615 36.5205 40.2156C35.8328 40.4842 34.7984 40.8016 32.8941 40.8887C30.8352 40.9822 30.2168 41.0025 25.0018 41.0025C19.7865 41.0025 19.1684 40.9822 17.1096 40.8887C15.2053 40.8008 14.1717 40.4826 13.4826 40.2152C12.5713 39.8611 11.9201 39.4381 11.2365 38.7545C10.5529 38.0709 10.1299 37.4215 9.775 36.5096C9.50762 35.8219 9.18906 34.7883 9.10234 32.884C9.00879 30.825 8.99004 30.2066 8.99004 24.9908C8.99004 19.7752 9.00879 19.16 9.10234 17.101C9.18945 15.1967 9.50762 14.1631 9.775 13.4746C10.1291 12.5631 10.5529 11.9121 11.2367 11.2285C11.9203 10.5449 12.5713 10.1217 13.4828 9.76699C14.1713 9.49844 15.2053 9.18105 17.1096 9.09355C18.9113 9.01211 19.6096 8.98769 23.2496 8.98359V8.98848ZM35.4275 12.2314C34.1336 12.2314 33.0838 13.2803 33.0838 14.5744C33.0838 15.8684 34.1336 16.9182 35.4275 16.9182C36.7215 16.9182 37.7713 15.8684 37.7713 14.5744C37.7713 13.2805 36.7215 12.2307 35.4275 12.2307V12.2314ZM25.0018 14.9699C19.4627 14.9699 14.9717 19.4609 14.9717 25.0002C14.9717 30.5395 19.4627 35.0283 25.0018 35.0283C30.541 35.0283 35.0305 30.5395 35.0305 25.0002C35.0305 19.4611 30.5406 14.9699 25.0014 14.9699H25.0018ZM25.0018 18.4896C28.5973 18.4896 31.5123 21.4043 31.5123 25.0002C31.5123 28.5957 28.5973 31.5107 25.0018 31.5107C21.4061 31.5107 18.4914 28.5957 18.4914 25.0002C18.4914 21.4043 21.4061 18.4896 25.0018 18.4896Z" fill="white"/>
</g>
<defs>
<radialGradient id="paint0_radial_143_15" cx="0" cy="0" r="1" gradientUnits="userSpaceOnUse" gradientTransform="translate(13.2812 53.851) rotate(-90) scale(49.5537 46.0889)">
<stop stop-color="#FFDD55"/>
<stop offset="0.1" stop-color="#FFDD55"/>
<stop offset="0.5" stop-color="#FF543E"/>
<stop offset="1" stop-color="#C837AB"/>
</radialGradient>
<radialGradient id="paint1_radial_143_15" cx="0" cy="0" r="1" gradientUnits="userSpaceOnUse" gradientTransform="translate(-8.3752 3.60176) rotate(78.681) scale(22.1508 91.3062)">
<stop stop-color="#3771C8"/>
<stop offset="0.128" stop-color="#3771C8"/>
<stop offset="1" stop-color="#6600FF" stop-opacity="0"/>
</radialGradient>
<clipPath id="clip0_143_15">
<rect width="50" height="50" fill="white"/>
</clipPath>
</defs>
</svg>
