<svg width="52" height="52" viewBox="0 0 52 52" fill="none" xmlns="http://www.w3.org/2000/svg">
<path d="M10.586 41.9091V51H50.6997V12.2955H41.7855M3.90041 39.6364L15.0431 26L21.7287 32.8182L30.6428 21.4545L41.7855 35.0909M1.67188 1H41.7855V41.9091H1.67188V1ZM12.8146 16.9091C13.4056 16.9091 13.9724 16.6696 14.3904 16.2434C14.8083 15.8172 15.0431 15.2391 15.0431 14.6364C15.0431 14.0336 14.8083 13.4555 14.3904 13.0293C13.9724 12.6031 13.4056 12.3636 12.8146 12.3636C12.2235 12.3636 11.6567 12.6031 11.2387 13.0293C10.8208 13.4555 10.586 14.0336 10.586 14.6364C10.586 15.2391 10.8208 15.8172 11.2387 16.2434C11.6567 16.6696 12.2235 16.9091 12.8146 16.9091Z" stroke="#24496C" stroke-width="2"/>
</svg>
