<svg width="87" height="85" viewBox="0 0 87 85" fill="none" xmlns="http://www.w3.org/2000/svg">
<path fill-rule="evenodd" clip-rule="evenodd" d="M31.0714 0C28.1872 0 25.4211 1.11942 23.3816 3.11199C21.3422 5.10456 20.1964 7.80708 20.1964 10.625V18.2143H12.4286C9.13231 18.2143 5.97105 19.4936 3.64024 21.7708C1.30944 24.0481 0 27.1367 0 30.3571V72.8571C0 76.0776 1.30944 79.1662 3.64024 81.4434C5.97105 83.7207 9.13231 85 12.4286 85H74.5714C77.8677 85 81.0289 83.7207 83.3598 81.4434C85.6906 79.1662 87 76.0776 87 72.8571V30.3571C87 27.1367 85.6906 24.0481 83.3598 21.7708C81.0289 19.4936 77.8677 18.2143 74.5714 18.2143H66.8036V10.625C66.8036 7.80708 65.6578 5.10456 63.6184 3.11199C61.5789 1.11942 58.8128 0 55.9286 0H31.0714ZM57.4821 18.2143V10.625C57.4821 10.2224 57.3185 9.83637 57.0271 9.55171C56.7358 9.26706 56.3406 9.10714 55.9286 9.10714H31.0714C30.6594 9.10714 30.2642 9.26706 29.9729 9.55171C29.6815 9.83637 29.5179 10.2224 29.5179 10.625V18.2143H57.4821ZM12.4286 27.3214H74.5714C75.3955 27.3214 76.1858 27.6413 76.7685 28.2106C77.3512 28.7799 77.6786 29.552 77.6786 30.3571V36.4286H9.32143V30.3571C9.32143 29.552 9.64879 28.7799 10.2315 28.2106C10.8142 27.6413 11.6045 27.3214 12.4286 27.3214ZM9.32143 45.5357V72.8571C9.32143 73.6623 9.64879 74.4344 10.2315 75.0037C10.8142 75.573 11.6045 75.8929 12.4286 75.8929H74.5714C75.3955 75.8929 76.1858 75.573 76.7685 75.0037C77.3512 74.4344 77.6786 73.6623 77.6786 72.8571V45.5357H49.7143V54.6429H37.2857V45.5357H9.32143Z" fill="url(#paint0_linear_196_341)"/>
<defs>
<linearGradient id="paint0_linear_196_341" x1="43.5" y1="0" x2="43.5" y2="85" gradientUnits="userSpaceOnUse">
<stop stop-color="#425AD4"/>
<stop offset="1" stop-color="#0E0C38"/>
</linearGradient>
</defs>
</svg>
