<svg width="37" height="37" viewBox="0 0 37 37" fill="none" xmlns="http://www.w3.org/2000/svg">
<path d="M7.36364 29.6364V36H36V8.90682H29.6364M2.59091 28.0455L10.5455 18.5L15.3182 23.2727L21.6818 15.3182L29.6364 24.8636M1 1H29.6364V29.6364H1V1ZM8.95455 12.1364C9.37648 12.1364 9.78113 11.9687 10.0795 11.6704C10.3778 11.372 10.5455 10.9674 10.5455 10.5455C10.5455 10.1235 10.3778 9.71887 10.0795 9.42051C9.78113 9.12216 9.37648 8.95455 8.95455 8.95455C8.53261 8.95455 8.12796 9.12216 7.8296 9.42051C7.53125 9.71887 7.36364 10.1235 7.36364 10.5455C7.36364 10.9674 7.53125 11.372 7.8296 11.6704C8.12796 11.9687 8.53261 12.1364 8.95455 12.1364Z" stroke="#24496C" stroke-width="2"/>
</svg>
