<svg width="52" height="52" viewBox="0 0 52 52" fill="none" xmlns="http://www.w3.org/2000/svg">
<path d="M10.0909 41.9091V51H51V12.2955H41.9091M3.27273 39.6364L14.6364 26L21.4545 32.8182L30.5455 21.4545L41.9091 35.0909M1 1H41.9091V41.9091H1V1ZM12.3636 16.9091C12.9664 16.9091 13.5445 16.6696 13.9707 16.2434C14.3969 15.8172 14.6364 15.2391 14.6364 14.6364C14.6364 14.0336 14.3969 13.4555 13.9707 13.0293C13.5445 12.6031 12.9664 12.3636 12.3636 12.3636C11.7609 12.3636 11.1828 12.6031 10.7566 13.0293C10.3304 13.4555 10.0909 14.0336 10.0909 14.6364C10.0909 15.2391 10.3304 15.8172 10.7566 16.2434C11.1828 16.6696 11.7609 16.9091 12.3636 16.9091Z" stroke="#24496C" stroke-width="2"/>
</svg>
