<svg width="589" height="601" viewBox="0 0 589 601" fill="none" xmlns="http://www.w3.org/2000/svg">
<path d="M294.7 0.74292C372.718 0.74292 447.54 32.35 502.707 88.6109C557.874 144.872 588.867 221.178 588.867 300.743C588.867 380.308 557.874 456.614 502.707 512.875C447.54 569.136 372.718 600.743 294.7 600.743C216.682 600.743 141.86 569.136 86.6926 512.875C31.5257 456.614 0.533203 380.308 0.533203 300.743C0.533203 221.178 31.5257 144.872 86.6926 88.6109C141.86 32.35 216.682 0.74292 294.7 0.74292ZM258.055 359.929L192.708 293.243C190.365 290.854 187.584 288.959 184.523 287.666C181.463 286.373 178.182 285.707 174.869 285.707C171.556 285.707 168.275 286.373 165.215 287.666C162.154 288.959 159.373 290.854 157.03 293.243C152.299 298.068 149.641 304.612 149.641 311.436C149.641 318.259 152.299 324.804 157.03 329.629L240.237 414.486C242.573 416.887 245.352 418.793 248.414 420.093C251.476 421.394 254.759 422.063 258.076 422.063C261.393 422.063 264.677 421.394 267.738 420.093C270.8 418.793 273.579 416.887 275.915 414.486L448.213 238.729C450.587 236.349 452.475 233.514 453.77 230.387C455.064 227.26 455.738 223.902 455.754 220.508C455.769 217.113 455.125 213.749 453.86 210.61C452.594 207.471 450.732 204.618 448.379 202.216C446.027 199.815 443.232 197.912 440.155 196.617C437.078 195.323 433.781 194.662 430.452 194.674C427.124 194.686 423.831 195.37 420.763 196.686C417.694 198.002 414.912 199.925 412.577 202.343L258.055 359.929Z" fill="#319BE8"/>
</svg>
